<?xml version="1.0" encoding="UTF-8" standalone="no"?><!DOCTYPE svg PUBLIC "-//W3C//DTD SVG 1.1//EN" "http://www.w3.org/Graphics/SVG/1.1/DTD/svg11.dtd"><svg width="100%" height="100%" viewBox="0 0 16 16" version="1.1" xmlns="http://www.w3.org/2000/svg" xmlns:xlink="http://www.w3.org/1999/xlink" xml:space="preserve" xmlns:serif="http://www.serif.com/" style="fill-rule:evenodd;clip-rule:evenodd;stroke-linejoin:round;stroke-miterlimit:2;"><path d="M7.153,7.198c0,-0.376 0.29,-0.681 0.648,-0.681c0.357,0 0.647,0.305 0.647,0.681c0.179,-0.325 0.575,-0.437 0.885,-0.249c0.309,0.188 0.415,0.604 0.236,0.929c0.31,-0.188 0.706,-0.076 0.885,0.249c0.179,0.325 0.072,0.742 -0.237,0.93c0.357,-0 0.647,0.305 0.647,0.68c0,0.376 -0.29,0.68 -0.647,0.68c0.309,0.188 0.416,0.605 0.237,0.93c-0.179,0.325 -0.575,0.437 -0.885,0.249c0.179,0.325 0.073,0.742 -0.236,0.929c-0.31,0.188 -0.706,0.076 -0.885,-0.249c0,0.376 -0.29,0.681 -0.647,0.681c-0.358,-0 -0.648,-0.305 -0.648,-0.681c-0.178,0.325 -0.575,0.437 -0.884,0.249c-0.31,-0.187 -0.416,-0.604 -0.237,-0.929c-0.31,0.188 -0.706,0.076 -0.884,-0.249c-0.179,-0.325 -0.073,-0.742 0.236,-0.93c-0.357,0 -0.647,-0.304 -0.647,-0.68c0,-0.375 0.29,-0.68 0.647,-0.68c-0.309,-0.188 -0.415,-0.605 -0.236,-0.93c0.178,-0.325 0.574,-0.437 0.884,-0.249c-0.179,-0.325 -0.073,-0.741 0.237,-0.929c0.309,-0.188 0.706,-0.076 0.884,0.249Z" style="fill:#feef10;"/><path d="M2.97,1.35c0.19,-0.222 0.468,-0.35 0.76,-0.35l8.54,0c0.292,-0 0.57,0.128 0.76,0.35l2.609,3.044c0.233,0.272 0.361,0.618 0.361,0.976l0,0.255c0,1.303 -1.072,2.375 -2.375,2.375c-0.733,0 -1.425,-0.339 -1.875,-0.917c-0.449,0.579 -1.142,0.918 -1.875,0.917c-0.733,0.001 -1.426,-0.338 -1.875,-0.917c-0.449,0.579 -1.142,0.918 -1.875,0.917c-0.733,0.001 -1.426,-0.338 -1.875,-0.917c-0.45,0.578 -1.142,0.917 -1.875,0.917c-1.303,0 -2.375,-1.072 -2.375,-2.375l0,-0.255c0,-0.358 0.128,-0.704 0.361,-0.976l2.61,-3.045l-0.001,0.001Zm1.78,4.275c0,0.754 0.621,1.375 1.375,1.375c0.754,0 1.375,-0.621 1.375,-1.375c0,-0.274 0.226,-0.5 0.5,-0.5c0.274,0 0.5,0.226 0.5,0.5c0,0.754 0.621,1.375 1.375,1.375c0.754,0 1.375,-0.621 1.375,-1.375c0,-0.274 0.226,-0.5 0.5,-0.5c0.274,0 0.5,0.226 0.5,0.5c0,0.754 0.621,1.375 1.375,1.375c0.754,0 1.375,-0.621 1.375,-1.375l0,-0.255c0,-0.119 -0.043,-0.234 -0.12,-0.325l-2.61,-3.045l-8.54,0l-2.61,3.045c-0.077,0.091 -0.12,0.206 -0.12,0.325l-0,0.255c-0,0.754 0.621,1.375 1.375,1.375c0.754,0 1.375,-0.621 1.375,-1.375c-0,-0.274 0.226,-0.5 0.5,-0.5c0.274,0 0.5,0.226 0.5,0.5Zm-3.25,2.875c0.274,0 0.5,0.226 0.5,0.5l0,6l12,0l0,-6c0,-0.274 0.226,-0.5 0.5,-0.5c0.274,0 0.5,0.226 0.5,0.5l0,6l0.5,0c0.274,0 0.5,0.226 0.5,0.5c0,0.274 -0.226,0.5 -0.5,0.5l-15,0c-0.274,0 -0.5,-0.226 -0.5,-0.5c-0,-0.274 0.226,-0.5 0.5,-0.5l0.5,0l0,-6c0,-0.274 0.226,-0.5 0.5,-0.5Zm2,0.5c0.274,0 0.5,0.226 0.5,0.5l0,3.5l8,0l0,-3.5c0,-0.274 0.226,-0.5 0.5,-0.5c0.274,0 0.5,0.226 0.5,0.5l0,3.5c0,0.549 -0.451,1 -1,1l-8,0c-0.549,0 -1,-0.451 -1,-1l0,-3.5c0,-0.274 0.226,-0.5 0.5,-0.5Z" style="fill-rule:nonzero;"/><ellipse cx="7.961" cy="9.661" rx="1.2" ry="1.25" style="fill:#f00;"/></svg>